<?xml version="1.0" encoding="utf-8"?>
<!-- Generator: Adobe Illustrator 16.0.0, SVG Export Plug-In . SVG Version: 6.00 Build 0)  -->
<!DOCTYPE svg PUBLIC "-//W3C//DTD SVG 1.1//EN" "http://www.w3.org/Graphics/SVG/1.1/DTD/svg11.dtd">
<svg version="1.1" id="Layer_1" xmlns="http://www.w3.org/2000/svg" xmlns:xlink="http://www.w3.org/1999/xlink" x="0px" y="0px"
	 width="66.115px" height="66.114px" viewBox="0 0 66.115 66.114" enable-background="new 0 0 66.115 66.114" xml:space="preserve">
<g opacity="0.3">
	<path fill="#4D5864" d="M33.057,66.114C14.83,66.114,0,51.285,0,33.057C0,14.829,14.83,0,33.057,0
		c18.228,0,33.058,14.829,33.058,33.057C66.115,51.285,51.285,66.114,33.057,66.114z M33.057,2C15.932,2,2,15.932,2,33.057
		c0,17.125,13.932,31.058,31.057,31.058s31.058-13.933,31.058-31.058C64.115,15.932,50.182,2,33.057,2z"/>
</g>
<g opacity="0.3">
	<polygon fill="#4D5864" points="33.058,39.75 21.793,28.485 23.208,27.071 33.058,36.922 42.907,27.071 44.321,28.485 	"/>
</g>
</svg>
