<?xml version="1.0" encoding="utf-8"?>
<!-- Generator: Adobe Illustrator 15.0.0, SVG Export Plug-In . SVG Version: 6.00 Build 0)  -->
<!DOCTYPE svg PUBLIC "-//W3C//DTD SVG 1.1//EN" "http://www.w3.org/Graphics/SVG/1.1/DTD/svg11.dtd">
<svg version="1.1" id="Layer_2" xmlns="http://www.w3.org/2000/svg" xmlns:xlink="http://www.w3.org/1999/xlink" x="0px" y="0px"
	 width="143.333px" height="146px" viewBox="0 0 143.333 146" enable-background="new 0 0 143.333 146" xml:space="preserve">
<linearGradient id="SVGID_1_" gradientUnits="userSpaceOnUse" x1="71.6665" y1="11.6113" x2="71.6665" y2="134.6548">
	<stop  offset="0" style="stop-color:#E8E8E8"/>
	<stop  offset="1" style="stop-color:#DCDCDC"/>
</linearGradient>
<path fill="url(#SVGID_1_)" d="M131.392,48.703l-2.015-1.428c0.019-1.568-0.559-4.003-2.799-5.502
	c1.022-2.499,1.994-6.07,1.994-9.498c0-12.232-11.779-20.092-12.279-20.42c-0.17-0.11-0.367-0.17-0.568-0.17H92.402
	c-0.282,0-0.552,0.115-0.747,0.318L80.749,23.351v-2.38c0-0.572-0.463-1.036-1.037-1.036h-2.973
	c0.754-0.942,1.208-2.134,1.208-3.432c0-3.035-2.469-5.504-5.504-5.504c-3.035,0-5.504,2.469-5.504,5.504
	c0,1.298,0.454,2.489,1.208,3.432h-3.588c-0.572,0-1.037,0.464-1.037,1.036v1.74L53.229,12.003
	c-0.195-0.203-0.465-0.318-0.747-0.318H29.159c-0.202,0-0.399,0.06-0.568,0.17c-0.502,0.328-12.281,8.188-12.281,20.42
	c0,3.371,0.94,6.88,1.944,9.372c-1.971,0.785-2.489,0.98-2.494,0.982c-0.203,0.076-0.378,0.215-0.499,0.396l-3.584,5.377
	c-0.186,0.279-0.226,0.631-0.106,0.944l2.363,6.191c0.116,0.306,0.37,0.538,0.684,0.628l3.551,1.015l10.795,21.83
	c0.175,0.354,0.535,0.577,0.93,0.577h3.149l6.133,19.572c0.003,1.657,0.028,15.86,0.028,17.931c0,3.445,1.856,5.192,5.518,5.192
	h2.775v7.524c0,3.444,1.856,5.191,5.518,5.191h38.858c3.66,0,5.518-1.747,5.518-5.191v-7.524h2.775c3.662,0,5.518-1.747,5.518-5.192
	c0-2.078-0.074-18.421-0.081-20.047l4.979-20.096l2.061-1.893l3.831,1.762c0.5,0.231,1.093,0.029,1.351-0.457l13.889-26.328
	C131.952,49.572,131.816,49.002,131.392,48.703z M72.442,13.072c1.893,0,3.432,1.54,3.432,3.432c0,1.893-1.539,3.432-3.432,3.432
	c-1.892,0-3.431-1.539-3.431-3.432C69.011,14.612,70.55,13.072,72.442,13.072z M65.593,22.008h13.082v3.499l-2.844,2.961h-6.776
	l-3.46-3.601L65.593,22.008L65.593,22.008z M95.315,129.807c0,1.977-0.562,3.119-3.443,3.119H53.013
	c-2.881,0-3.444-1.144-3.444-3.119v-7.523h45.747L95.315,129.807L95.315,129.807z M116.445,74.525l-3.565-1.643
	c-0.379-0.174-0.826-0.104-1.133,0.179l-2.8,2.569c-0.149,0.139-0.256,0.316-0.305,0.516l-5.084,20.522
	c-0.021,0.084-0.031,0.169-0.031,0.255c0.001,0.18,0.082,17.994,0.082,20.166c0,1.977-0.563,3.119-3.444,3.119H44.72
	c-2.881,0-3.444-1.145-3.444-3.119c0-2.199-0.028-18.093-0.028-18.093c0-0.104-0.017-0.208-0.047-0.308L34.793,78.24
	c-0.135-0.434-0.536-0.727-0.989-0.727h-3.267L19.823,55.849c-0.129-0.262-0.363-0.457-0.644-0.537l-3.494-0.998l-1.987-5.207
	l3.105-4.658c0.424-0.165,1.35-0.528,3.208-1.271c0.264-0.105,0.473-0.315,0.578-0.579c0.105-0.264,0.097-0.56-0.021-0.818
	c-1.057-2.289-2.186-5.988-2.186-9.505c0-10.18,9.446-17.341,11.1-18.517H52.04l15.825,16.465c0.195,0.203,0.465,0.318,0.748,0.318
	h7.659c0.282,0,0.553-0.115,0.747-0.318l15.825-16.465h22.558c1.655,1.173,11.099,8.315,11.099,18.517
	c0,3.517-1.129,7.216-2.186,9.505c-0.238,0.518-0.016,1.131,0.5,1.373c2.828,1.329,2.479,4.368,2.463,4.491
	c-0.053,0.384,0.112,0.765,0.428,0.987l1.746,1.237L116.445,74.525z M106.858,25.999c-3.417,0-6.197,2.78-6.197,6.198
	c0,3.417,2.779,6.197,6.197,6.197c3.417,0,6.198-2.78,6.198-6.197C113.056,28.779,110.275,25.999,106.858,25.999z M106.858,36.321
	c-2.273,0-4.125-1.85-4.125-4.124c0-2.274,1.852-4.125,4.125-4.125s4.125,1.851,4.125,4.125
	C110.983,34.471,109.131,36.321,106.858,36.321z M106.858,17.147c-4.746,0-8.982,2.21-11.742,5.652
	c-0.023,0.022-0.047,0.042-0.066,0.067L81.01,40.458c-0.165-4.589-3.939-8.274-8.568-8.274c-4.654,0-8.446,3.726-8.572,8.35
	L49.813,23.216c-0.025-0.031-0.055-0.057-0.083-0.084c-2.75-3.633-7.107-5.985-12.005-5.985c-8.299,0-15.05,6.751-15.05,15.05
	c0,3.423,1.15,6.58,3.083,9.111c0.034,0.056,0.073,0.109,0.119,0.159l0.046,0.05c0.45,0.569,0.94,1.104,1.466,1.603l31.364,34.272
	c-0.33-0.039-0.664-0.064-1.004-0.064c-4.733,0-8.584,3.852-8.584,8.585s3.851,8.584,8.584,8.584c2.441,0,4.642-1.029,6.207-2.671
	l-0.807,15.045c-0.003,0.056,0.002,0.109,0.008,0.164c-0.001,0.061-0.009,0.119-0.009,0.18c0,4.733,3.851,8.584,8.584,8.584
	c4.733,0,8.584-3.851,8.584-8.584c0-0.764-0.108-1.5-0.297-2.205c-0.001-0.008,0-0.017-0.002-0.023l-5.476-31.092
	c1.479,1.205,3.361,1.931,5.412,1.931c4.733,0,8.584-3.852,8.584-8.585c0-3.841-2.535-7.101-6.021-8.193l29.562-12.734
	c0.477-0.177,0.94-0.378,1.394-0.601l0.087-0.037c0.061-0.025,0.115-0.058,0.167-0.093c4.853-2.501,8.181-7.56,8.181-13.384
	C121.907,23.898,115.157,17.147,106.858,17.147z M72.442,34.256c3.59,0,6.512,2.921,6.512,6.511c0,3.591-2.922,6.512-6.512,6.512
	c-2.017,0-3.823-0.923-5.018-2.367l-0.01-0.012c-0.926-1.125-1.483-2.564-1.483-4.133C65.931,37.177,68.852,34.256,72.442,34.256z
	 M27.492,40.161c-1.717-2.2-2.743-4.964-2.743-7.964c0-7.155,5.821-12.978,12.977-12.978c7.155,0,12.977,5.822,12.977,12.978
	c0,7.156-5.821,12.977-12.977,12.977c-3.413,0-6.521-1.327-8.839-3.488L27.492,40.161z M57.749,92.423
	c-3.59,0-6.511-2.921-6.511-6.511c0-3.592,2.921-6.512,6.511-6.512c1.76,0,3.356,0.705,4.529,1.843l0.537,0.586
	c0.902,1.118,1.446,2.537,1.446,4.083C64.26,89.502,61.339,92.423,57.749,92.423z M71.731,113.725c-3.59,0-6.511-2.92-6.511-6.511
	s2.921-6.511,6.511-6.511s6.512,2.92,6.512,6.511S75.322,113.725,71.731,113.725z M86.465,67.239c0,3.591-2.922,6.512-6.512,6.512
	s-6.511-2.921-6.511-6.512c0-3.59,2.92-6.511,6.511-6.511C83.545,60.728,86.465,63.649,86.465,67.239z M76.68,59.302
	c-0.008,0.004-0.016,0.009-0.021,0.013c-3.103,1.295-5.289,4.358-5.289,7.924c0,0.716,0.098,1.407,0.264,2.072
	c0.001,0.015,0,0.028,0.003,0.042l5.494,31.196c-1.477-1.197-3.354-1.919-5.398-1.919c-2.442,0-4.643,1.029-6.208,2.671
	l0.809-15.064c0.003-0.053-0.002-0.104-0.007-0.153c0.001-0.058,0.009-0.112,0.009-0.17c0-1.97-0.674-3.781-1.793-5.231
	c-0.037-0.062-0.079-0.123-0.13-0.179l-0.018-0.019c-0.196-0.24-0.406-0.469-0.626-0.686L33.391,46.607
	c1.374,0.414,2.828,0.64,4.335,0.64c8.298,0,15.05-6.752,15.05-15.05c0-0.765-0.059-1.517-0.169-2.25l13.272,16.352
	c0.022,0.026,0.048,0.046,0.072,0.07c1.576,1.823,3.898,2.983,6.491,2.983c2.801,0,5.284-1.354,6.852-3.435
	c0.02-0.021,0.041-0.036,0.06-0.059l12.61-15.801c-0.101,0.698-0.154,1.412-0.154,2.139c0,7.653,5.745,13.987,13.148,14.925
	L76.68,59.302z M112.599,43.83l-1.3,0.561c-1.387,0.506-2.883,0.783-4.441,0.783c-7.154,0-12.977-5.821-12.977-12.977
	c0-7.156,5.822-12.978,12.977-12.978c7.155,0,12.977,5.822,12.977,12.978C119.834,37.292,116.881,41.708,112.599,43.83z
	 M44.298,32.197c0-3.624-2.949-6.572-6.572-6.572c-3.624,0-6.572,2.948-6.572,6.572c0,3.623,2.948,6.572,6.572,6.572
	C41.349,38.769,44.298,35.82,44.298,32.197z M33.226,32.197c0-2.481,2.019-4.5,4.5-4.5c2.48,0,4.499,2.019,4.499,4.5
	c0,2.48-2.019,4.499-4.499,4.499C35.245,36.696,33.226,34.677,33.226,32.197z M91.312,79.257c-3.742,0-6.787,3.045-6.787,6.787
	s3.044,6.787,6.787,6.787s6.787-3.045,6.787-6.787S95.055,79.257,91.312,79.257z M91.312,90.758c-2.599,0-4.714-2.115-4.714-4.714
	c0-2.601,2.115-4.714,4.714-4.714s4.714,2.113,4.714,4.714C96.026,88.643,93.911,90.758,91.312,90.758z"/>
</svg>
