<?xml version="1.0" encoding="utf-8"?>
<!-- Generator: Adobe Illustrator 15.0.0, SVG Export Plug-In . SVG Version: 6.00 Build 0)  -->
<!DOCTYPE svg PUBLIC "-//W3C//DTD SVG 1.1//EN" "http://www.w3.org/Graphics/SVG/1.1/DTD/svg11.dtd">
<svg version="1.1" id="Layer_2" xmlns="http://www.w3.org/2000/svg" xmlns:xlink="http://www.w3.org/1999/xlink" x="0px" y="0px"
	 width="165.689px" height="144.652px" viewBox="0 0 165.689 144.652" enable-background="new 0 0 165.689 144.652"
	 xml:space="preserve">
<linearGradient id="SVGID_1_" gradientUnits="userSpaceOnUse" x1="82.8445" y1="18.2336" x2="82.8445" y2="127.242">
	<stop  offset="0" style="stop-color:#E8E8E8"/>
	<stop  offset="1" style="stop-color:#DCDCDC"/>
</linearGradient>
<path fill="url(#SVGID_1_)" d="M147.807,61.337c0.574,0,1.039-0.465,1.039-1.039V45.201c0-0.574-0.465-1.039-1.039-1.039h-3.255
	V32.261c0-0.574-0.465-1.039-1.039-1.039h-38.394v-3.477c0-0.574-0.466-1.039-1.039-1.039H92.939l2.708-8.042
	c0.123-0.362,0.035-0.764-0.226-1.042c-0.261-0.279-0.655-0.392-1.024-0.294L74.76,22.526c-0.377,0.101-0.667,0.403-0.75,0.785
	l-0.734,3.396H61.792c-0.574,0-1.039,0.465-1.039,1.039v3.477H22.359c-0.573,0-1.039,0.465-1.039,1.039v11.901h-3.437
	c-0.574,0-1.039,0.465-1.039,1.039V60.3c0,0.574,0.465,1.039,1.039,1.039h3.255v57.157h-3.255c-0.574,0-1.039,0.465-1.039,1.038
	v6.786c0,0.574,0.465,1.039,1.039,1.039h129.923c0.574,0,1.039-0.465,1.039-1.039v-6.786c0-0.573-0.465-1.038-1.039-1.038h-3.255
	V61.337H147.807z M105.119,33.3h37.354v10.862h-13.532v-7.277c0-0.574-0.465-1.039-1.039-1.039h-9.644
	c-0.574,0-1.039,0.465-1.039,1.039v7.277h-12.103V33.3H105.119z M126.865,37.924v6.238H119.3v-6.238H126.865z M103.042,28.784
	v15.378h-15.98l5.177-15.378H103.042z M75.907,24.372l17.153-4.541L81.217,55.013c-0.122,0.362-0.035,0.763,0.226,1.042
	c0.263,0.279,0.657,0.394,1.024,0.294l17.296-4.579l-17.73,47.161l4.266-30.96c0.048-0.344-0.08-0.688-0.34-0.919
	c-0.192-0.17-0.438-0.261-0.688-0.261c-0.089,0-0.178,0.011-0.266,0.035l-19.384,5.13l2.475-11.447c0-0.001,0-0.002,0-0.003
	l3.263-15.094c0-0.001,0.001-0.003,0.001-0.004L75.907,24.372z M63.529,74.146c0.262,0.25,0.635,0.346,0.983,0.253l19.515-5.166
	l-5.321,38.62c-0.072,0.524,0.261,1.02,0.773,1.148c0.085,0.021,0.171,0.032,0.256,0.032c0.424,0,0.817-0.261,0.973-0.674
	l17.679-47.021h44.088v57.157H23.217V61.337H65.79l-2.56,11.838C63.154,73.528,63.267,73.896,63.529,74.146z M62.83,28.784h9.998
	l-3.325,15.378H62.83V28.784z M23.398,33.3h37.354v10.862H48.65v-7.277c0-0.574-0.465-1.039-1.039-1.039h-9.643
	c-0.574,0-1.039,0.465-1.039,1.039v7.277H23.398V33.3z M46.573,37.924v6.238h-7.566v-6.238H46.573z M18.923,59.259V46.24h50.131
	l-2.815,13.02L18.923,59.259L18.923,59.259z M146.768,120.571v4.709H18.923v-4.709H146.768z M99.167,59.259l3.25-8.643
	c0.137-0.364,0.059-0.774-0.202-1.062c-0.261-0.289-0.661-0.407-1.037-0.308l-17.376,4.6l2.561-7.605h60.405v13.02L99.167,59.259
	L99.167,59.259z M54.771,84.888h-6.718V78.17c0-0.574-0.465-1.039-1.039-1.039h-7.203c-0.574,0-1.039,0.465-1.039,1.039v6.718
	h-6.718c-0.574,0-1.039,0.465-1.039,1.039v7.202c0,0.574,0.465,1.039,1.039,1.039h6.718v6.718c0,0.574,0.465,1.039,1.039,1.039
	h7.203c0.574,0,1.039-0.465,1.039-1.039v-6.718h6.718c0.574,0,1.039-0.465,1.039-1.039v-7.202
	C55.81,85.353,55.345,84.888,54.771,84.888z M53.732,92.09h-6.718c-0.574,0-1.039,0.465-1.039,1.039v6.718H40.85v-6.718
	c0-0.574-0.465-1.039-1.039-1.039h-6.718v-5.125h6.718c0.574,0,1.039-0.465,1.039-1.039v-6.718h5.125v6.718
	c0,0.574,0.465,1.039,1.039,1.039h6.718V92.09z M110.919,94.168h22.716c0.574,0,1.039-0.465,1.039-1.039v-7.202
	c0-0.574-0.465-1.039-1.039-1.039h-22.716c-0.574,0-1.039,0.465-1.039,1.039v7.202C109.881,93.703,110.346,94.168,110.919,94.168z
	 M111.958,86.966h20.638v5.125h-20.638V86.966z"/>
</svg>
