<?xml version="1.0" encoding="utf-8"?>
<!-- Generator: Adobe Illustrator 15.0.0, SVG Export Plug-In . SVG Version: 6.00 Build 0)  -->
<!DOCTYPE svg PUBLIC "-//W3C//DTD SVG 1.1//EN" "http://www.w3.org/Graphics/SVG/1.1/DTD/svg11.dtd">
<svg version="1.1" id="Layer_2" xmlns="http://www.w3.org/2000/svg" xmlns:xlink="http://www.w3.org/1999/xlink" x="0px" y="0px"
	 width="79.02px" height="151.654px" viewBox="0 0 79.02 151.654" enable-background="new 0 0 79.02 151.654" xml:space="preserve">
<linearGradient id="SVGID_1_" gradientUnits="userSpaceOnUse" x1="39.5095" y1="5.325" x2="39.5095" y2="146.3284">
	<stop  offset="0" style="stop-color:#E8E8E8"/>
	<stop  offset="1" style="stop-color:#DCDCDC"/>
</linearGradient>
<path fill="url(#SVGID_1_)" d="M73.722,114.909c-0.09-0.045-1.958-0.971-3.895-1.52c0.049-0.71,0.073-1.424,0.073-2.132
	s-0.024-1.422-0.073-2.134c1.937-0.55,3.805-1.476,3.895-1.52c0.413-0.206,0.641-0.657,0.561-1.111l-0.469-2.655
	c-0.079-0.45-0.448-0.8-0.904-0.851c-0.053-0.006-1.284-0.146-2.764-0.146c-0.501,0-0.972,0.018-1.41,0.048
	c-0.392-1.367-0.881-2.713-1.46-4.011c1.63-1.178,3.065-2.684,3.135-2.755c0.315-0.336,0.376-0.838,0.146-1.236l-1.347-2.333
	c-0.231-0.399-0.696-0.6-1.145-0.491c-0.098,0.022-2.123,0.516-3.96,1.339c-0.835-1.147-1.752-2.241-2.743-3.266
	c1.132-1.666,1.969-3.576,2.009-3.669c0.184-0.422,0.067-0.913-0.285-1.211l-2.065-1.732c-0.353-0.296-0.856-0.325-1.242-0.07
	c-0.083,0.055-1.815,1.209-3.261,2.613c-0.711-0.481-1.445-0.928-2.191-1.347c9.518-5.357,15.382-15.338,15.382-26.318
	c0-7.228-2.571-14.153-7.251-19.622c-0.021-0.026-0.039-0.055-0.062-0.082c-0.111-0.12-0.219-0.24-0.325-0.36
	c-0.026-0.031-0.054-0.063-0.081-0.095c-1.786-2.079-2.589-4.181-2.589-6.745c0-2.251,0.342-4.087,1.933-6.06
	c2.004-2.218,3.104-5.069,3.104-8.069c0.001-3.217-1.252-6.242-3.526-8.517c-2.275-2.275-5.3-3.528-8.517-3.527
	c-6.641,0-12.044,5.403-12.044,12.044c0,0.399,0.022,0.802,0.063,1.202c0.001,0.014-0.001,0.027,0,0.042
	c0.363,3.114-0.156,5.235-1.742,7.094c-1.605,1.881-3.097,2.515-6.763,3.463c-0.023,0.006-0.044,0.018-0.066,0.024
	C18.54,32.667,9.312,44.568,9.312,58.403c0,10.887,5.978,21.003,15.384,26.317c-0.747,0.419-1.481,0.866-2.192,1.348
	c-1.445-1.403-3.178-2.559-3.262-2.613c-0.385-0.254-0.89-0.226-1.242,0.07l-2.065,1.732c-0.353,0.298-0.469,0.789-0.285,1.211
	c0.04,0.093,0.876,2.003,2.009,3.669c-0.99,1.022-1.907,2.116-2.743,3.266c-1.837-0.823-3.862-1.315-3.959-1.339
	c-0.449-0.107-0.914,0.093-1.145,0.491l-1.347,2.333c-0.229,0.398-0.171,0.9,0.146,1.236c0.069,0.071,1.504,1.577,3.136,2.755
	c-0.58,1.298-1.068,2.644-1.46,4.013c-0.438-0.032-0.911-0.05-1.412-0.05c-1.479,0-2.709,0.14-2.762,0.146
	c-0.458,0.054-0.825,0.399-0.904,0.853l-0.47,2.653c-0.08,0.454,0.147,0.905,0.562,1.111c0.089,0.044,1.958,0.97,3.894,1.52
	c-0.05,0.71-0.074,1.426-0.074,2.134c0,0.706,0.024,1.422,0.074,2.134c-0.374,0.104-0.764,0.229-1.167,0.372
	c-1.473,0.522-2.678,1.12-2.729,1.146c-0.412,0.206-0.64,0.657-0.561,1.109l0.469,2.656c0.08,0.451,0.447,0.8,0.905,0.851
	c0.053,0.007,1.282,0.145,2.762,0.145c0.501,0,0.974-0.016,1.412-0.049c0.392,1.37,0.881,2.715,1.46,4.013
	c-1.631,1.179-3.065,2.685-3.136,2.758c-0.316,0.332-0.376,0.836-0.146,1.231l1.347,2.336c0.23,0.399,0.696,0.6,1.144,0.49
	c0.099-0.024,2.124-0.515,3.96-1.339c0.836,1.146,1.754,2.24,2.742,3.264c-1.132,1.667-1.968,3.579-2.008,3.671
	c-0.184,0.424-0.067,0.915,0.285,1.21l2.065,1.733c0.354,0.296,0.858,0.324,1.242,0.069c0.083-0.056,1.816-1.21,3.262-2.612
	c1.181,0.8,2.417,1.514,3.691,2.139c-0.489,1.949-0.623,4.026-0.629,4.126c-0.028,0.46,0.25,0.884,0.684,1.042l2.533,0.922
	c0.432,0.154,0.917,0.011,1.189-0.359c0.061-0.08,1.293-1.756,2.17-3.566c1.379,0.345,2.788,0.59,4.204,0.736
	c0.206,2.004,0.792,4.002,0.82,4.1c0.131,0.441,0.536,0.742,0.997,0.742h2.695c0.459,0,0.866-0.301,0.996-0.742
	c0.029-0.098,0.616-2.096,0.82-4.1c1.417-0.146,2.825-0.394,4.203-0.736c0.878,1.812,2.109,3.484,2.17,3.566
	c0.273,0.37,0.758,0.515,1.19,0.359l2.533-0.922c0.434-0.158,0.711-0.582,0.684-1.042c-0.006-0.1-0.141-2.177-0.631-4.126
	c1.273-0.623,2.512-1.339,3.693-2.139c1.443,1.402,3.177,2.558,3.261,2.612c0.385,0.255,0.89,0.227,1.241-0.069l2.066-1.733
	c0.353-0.295,0.469-0.786,0.285-1.21c-0.04-0.092-0.877-2.004-2.009-3.671c0.99-1.022,1.908-2.116,2.743-3.266
	c1.837,0.826,3.863,1.315,3.96,1.341c0.449,0.108,0.914-0.094,1.145-0.49l1.347-2.336c0.23-0.397,0.171-0.899-0.146-1.233
	c-0.069-0.073-1.505-1.577-3.135-2.756c0.579-1.3,1.067-2.643,1.46-4.013c0.438,0.033,0.909,0.047,1.41,0.047l0,0
	c1.48,0,2.712-0.136,2.765-0.143c0.457-0.053,0.825-0.398,0.904-0.853l0.469-2.654C74.361,115.566,74.134,115.115,73.722,114.909z
	 M11.39,58.403c0-13.116,8.905-24.372,21.652-27.372c0.049-0.012,0.095-0.03,0.141-0.049c3.397-0.92,5.219-1.758,7.069-3.925
	c1.944-2.28,2.638-4.918,2.241-8.537c0-0.004,0-0.008,0-0.013c-0.042-0.376-0.065-0.76-0.065-1.137c0-5.496,4.471-9.965,9.966-9.965
	c2.662,0,5.164,1.036,7.047,2.918s2.917,4.385,2.917,7.047c0,2.313-0.795,4.519-2.246,6.293c-0.105,0.12-0.213,0.241-0.312,0.36
	c-0.065,0.073-0.124,0.148-0.191,0.221c-0.062,0.065-0.109,0.138-0.151,0.213c-1.749,2.312-2.137,4.519-2.137,7.042
	c0,2.962,0.931,5.486,2.902,7.872c0.019,0.023,0.033,0.049,0.054,0.071c0.041,0.045,0.079,0.093,0.119,0.137
	c0.036,0.042,0.072,0.083,0.109,0.124c4.594,5.156,7.125,11.779,7.124,18.698c0,10.335-5.58,19.717-14.612,24.666
	c0.333-1.657,0.43-3.18,0.438-3.268c0.027-0.458-0.25-0.882-0.683-1.04l-2.533-0.922c-0.432-0.157-0.917-0.011-1.19,0.359
	c-0.032,0.044-0.411,0.56-0.889,1.308c-0.017-0.795-0.065-1.943-0.214-3.128c1.021-0.479,2-1.045,2.925-1.689
	c1.696,1.282,3.449,2.237,3.531,2.283c0.403,0.22,0.905,0.146,1.23-0.18l2.277-2.278c0.325-0.326,0.398-0.827,0.178-1.231
	c-0.045-0.083-1-1.83-2.281-3.524c0.645-0.925,1.209-1.905,1.688-2.932c1.489,0.184,2.929,0.215,3.722,0.215
	c0.3,0,0.474-0.005,0.474-0.005c0.461-0.012,0.858-0.326,0.979-0.77l0.833-3.113c0.119-0.444-0.069-0.915-0.461-1.154
	c-0.081-0.049-1.783-1.087-3.741-1.914c0.098-1.127,0.098-2.261,0.002-3.384c1.956-0.827,3.656-1.863,3.736-1.912
	c0.393-0.24,0.581-0.711,0.461-1.156l-0.836-3.111c-0.119-0.445-0.518-0.758-0.978-0.77c0,0-0.171-0.005-0.467-0.005
	c-0.795,0-2.237,0.032-3.731,0.218c-0.479-1.021-1.045-2-1.688-2.926c1.281-1.696,2.237-3.447,2.282-3.53
	c0.22-0.404,0.146-0.905-0.18-1.23L55.623,40c-0.326-0.325-0.827-0.397-1.232-0.178c-0.082,0.045-1.829,1.001-3.522,2.282
	c-0.925-0.645-1.905-1.209-2.932-1.688c0.262-2.109,0.212-4.104,0.21-4.197c-0.012-0.46-0.325-0.855-0.77-0.977l-3.112-0.832
	c-0.446-0.12-0.916,0.068-1.156,0.46c-0.049,0.081-1.086,1.784-1.914,3.741c-1.129-0.098-2.259-0.098-3.382-0.002
	c-0.828-1.955-1.863-3.655-1.913-3.735c-0.24-0.393-0.712-0.581-1.154-0.461L31.63,35.25c-0.444,0.119-0.758,0.518-0.77,0.979
	c-0.003,0.094-0.05,2.09,0.213,4.198c-1.021,0.48-1.999,1.046-2.925,1.69c-1.695-1.282-3.447-2.237-3.529-2.283
	c-0.405-0.22-0.905-0.146-1.231,0.18l-2.278,2.278c-0.325,0.325-0.397,0.827-0.177,1.232c0.045,0.082,1.001,1.829,2.281,3.521
	c-0.645,0.926-1.208,1.906-1.688,2.932c-1.486-0.184-2.923-0.215-3.714-0.215c-0.305,0-0.481,0.005-0.481,0.005
	c-0.46,0.012-0.858,0.324-0.978,0.77L15.52,53.65c-0.119,0.443,0.069,0.915,0.462,1.155c0.081,0.049,1.783,1.086,3.741,1.913
	c-0.098,1.129-0.098,2.261-0.002,3.383c-1.957,0.827-3.657,1.864-3.738,1.914c-0.393,0.24-0.58,0.711-0.461,1.155l0.835,3.112
	c0.12,0.444,0.519,0.757,0.979,0.769c0,0,0.17,0.005,0.462,0.005c0.796,0,2.241-0.03,3.736-0.218
	c0.479,1.021,1.046,1.999,1.69,2.925c-1.282,1.695-2.238,3.448-2.283,3.531c-0.22,0.404-0.146,0.904,0.18,1.23l2.278,2.279
	c0.326,0.324,0.826,0.396,1.231,0.177c0.083-0.045,1.831-1.001,3.524-2.281c0.926,0.643,1.906,1.208,2.932,1.688
	c-0.147,1.189-0.196,2.343-0.211,3.14c-0.484-0.76-0.869-1.283-0.901-1.328c-0.272-0.37-0.758-0.517-1.19-0.359l-2.533,0.923
	c-0.433,0.157-0.71,0.58-0.683,1.041c0.006,0.085,0.104,1.606,0.437,3.263C17.079,78.163,11.39,68.65,11.39,58.403z M46.401,74.793
	c-0.441,0.187-0.698,0.651-0.622,1.125c0.234,1.424,0.292,2.947,0.303,3.836l-1.575,0.422c-0.436-0.773-1.146-2.118-1.656-3.468
	c-0.17-0.45-0.627-0.724-1.103-0.664c-1.474,0.188-2.984,0.188-4.463-0.002c-0.476-0.061-0.935,0.215-1.104,0.665
	c-0.51,1.351-1.222,2.697-1.656,3.473l-1.574-0.422c0.01-0.889,0.065-2.411,0.299-3.836c0.077-0.474-0.182-0.939-0.625-1.125
	c-1.382-0.579-2.684-1.329-3.867-2.228c-0.384-0.291-0.915-0.282-1.287,0.022c-1.116,0.914-2.404,1.725-3.167,2.179l-1.153-1.154
	c0.453-0.763,1.262-2.053,2.179-3.172c0.304-0.372,0.312-0.903,0.022-1.286c-0.901-1.19-1.653-2.489-2.232-3.864
	c-0.186-0.441-0.65-0.697-1.125-0.623c-1.438,0.236-2.982,0.291-3.837,0.303l-0.423-1.575c0.774-0.436,2.117-1.146,3.47-1.656
	c0.449-0.17,0.723-0.626,0.663-1.103c-0.188-1.476-0.188-2.977,0.002-4.464c0.061-0.477-0.215-0.934-0.664-1.104
	c-1.351-0.51-2.697-1.222-3.473-1.655l0.421-1.577c0.847,0.011,2.396,0.065,3.836,0.301c0.474,0.076,0.94-0.182,1.125-0.625
	c0.579-1.383,1.329-2.686,2.229-3.867c0.291-0.382,0.281-0.916-0.023-1.287c-0.914-1.116-1.723-2.404-2.178-3.167l1.154-1.154
	c0.763,0.453,2.051,1.262,3.172,2.178c0.371,0.305,0.903,0.313,1.286,0.023c1.188-0.901,2.489-1.653,3.865-2.233
	c0.442-0.187,0.698-0.651,0.621-1.126c-0.233-1.424-0.29-2.945-0.302-3.835l1.574-0.423c0.435,0.774,1.146,2.116,1.656,3.468
	c0.17,0.449,0.626,0.725,1.103,0.663c1.471-0.187,2.98-0.187,4.464,0.002c0.476,0.062,0.934-0.214,1.104-0.664
	c0.51-1.35,1.222-2.696,1.656-3.472l1.574,0.422c-0.011,0.89-0.065,2.411-0.299,3.835c-0.079,0.475,0.181,0.94,0.624,1.126
	c1.383,0.579,2.687,1.328,3.868,2.228c0.382,0.291,0.915,0.281,1.287-0.023c1.116-0.913,2.403-1.722,3.167-2.177l1.154,1.152
	c-0.455,0.765-1.266,2.055-2.179,3.172c-0.304,0.373-0.313,0.902-0.022,1.287c0.9,1.187,1.651,2.486,2.232,3.863
	c0.188,0.442,0.651,0.7,1.126,0.621c1.439-0.235,2.983-0.291,3.835-0.302l0.424,1.576c-0.775,0.433-2.12,1.146-3.469,1.656
	c-0.449,0.169-0.724,0.625-0.663,1.103c0.188,1.475,0.188,2.978-0.003,4.463c-0.06,0.478,0.214,0.934,0.665,1.104
	c1.351,0.508,2.695,1.221,3.473,1.655l-0.422,1.575c-0.85-0.01-2.396-0.063-3.835-0.299c-0.476-0.075-0.94,0.181-1.127,0.625
	c-0.578,1.382-1.327,2.684-2.227,3.867c-0.291,0.383-0.282,0.915,0.022,1.287c0.914,1.116,1.723,2.403,2.177,3.167l-1.151,1.152
	c-0.764-0.452-2.053-1.262-3.173-2.178c-0.373-0.304-0.904-0.313-1.287-0.022C49.078,73.462,47.778,74.212,46.401,74.793z
	 M71.906,117.53c-0.461,0.03-1.087,0.062-1.762,0.062l0,0c-0.774,0-1.461-0.041-2.036-0.124c-0.526-0.072-1.022,0.262-1.153,0.773
	c-0.464,1.827-1.113,3.613-1.932,5.306c-0.229,0.479-0.063,1.056,0.388,1.335c1.122,0.7,2.285,1.759,2.946,2.396l-0.55,0.952
	c-0.883-0.252-2.385-0.732-3.552-1.354c-0.467-0.251-1.048-0.107-1.348,0.329c-1.059,1.551-2.28,3.005-3.632,4.323
	c-0.38,0.371-0.419,0.969-0.091,1.386c0.818,1.04,1.551,2.438,1.954,3.267l-0.843,0.705c-0.743-0.538-1.988-1.501-2.874-2.489
	c-0.355-0.396-0.95-0.46-1.38-0.148c-1.535,1.104-3.18,2.058-4.888,2.828c-0.482,0.218-0.724,0.765-0.56,1.271
	c0.41,1.257,0.621,2.814,0.717,3.729l-1.035,0.376c-0.513-0.761-1.351-2.089-1.846-3.32c-0.198-0.489-0.735-0.753-1.245-0.609
	c-1.81,0.509-3.681,0.836-5.562,0.975c-0.53,0.039-0.945,0.47-0.962,1.003c-0.044,1.322-0.379,2.86-0.603,3.754h-1.1
	c-0.224-0.891-0.558-2.43-0.602-3.756c-0.019-0.531-0.434-0.962-0.962-1.001c-1.881-0.139-3.752-0.466-5.562-0.975
	c-0.51-0.144-1.047,0.12-1.245,0.609c-0.494,1.229-1.333,2.559-1.847,3.32l-1.034-0.376c0.096-0.914,0.307-2.47,0.718-3.729
	c0.165-0.506-0.077-1.053-0.56-1.271c-1.71-0.773-3.355-1.726-4.888-2.828c-0.431-0.312-1.027-0.246-1.381,0.148
	c-0.883,0.983-2.13,1.948-2.874,2.489l-0.843-0.705c0.403-0.826,1.135-2.223,1.955-3.267c0.328-0.417,0.288-1.015-0.091-1.386
	c-1.351-1.316-2.572-2.771-3.633-4.323c-0.3-0.438-0.881-0.58-1.349-0.329c-1.166,0.622-2.667,1.104-3.551,1.354l-0.549-0.95
	c0.66-0.639,1.824-1.696,2.946-2.396c0.451-0.279,0.617-0.855,0.388-1.335c-0.818-1.691-1.467-3.477-1.932-5.304
	c-0.131-0.515-0.629-0.849-1.153-0.772c-0.577,0.08-1.264,0.121-2.039,0.121c-0.673,0-1.299-0.029-1.759-0.062l-0.191-1.085
	c0.458-0.203,1.1-0.474,1.798-0.723c0.649-0.229,1.253-0.404,1.795-0.52c0.52-0.108,0.873-0.592,0.82-1.119
	c-0.093-0.938-0.142-1.892-0.142-2.826c0-0.938,0.049-1.89,0.141-2.822c0.053-0.529-0.3-1.013-0.819-1.119
	c-1.295-0.272-2.753-0.873-3.593-1.245l0.191-1.085c0.46-0.03,1.085-0.062,1.759-0.062c0.775,0,1.462,0.04,2.039,0.122
	c0.526,0.075,1.022-0.259,1.153-0.772c0.464-1.825,1.113-3.611,1.932-5.308c0.229-0.478,0.062-1.052-0.388-1.332
	c-1.122-0.699-2.286-1.758-2.945-2.396l0.549-0.951c0.883,0.253,2.385,0.731,3.552,1.355c0.467,0.25,1.048,0.104,1.347-0.331
	c1.061-1.553,2.282-3.006,3.633-4.322c0.379-0.37,0.419-0.968,0.091-1.385c-0.818-1.043-1.551-2.438-1.954-3.267l0.842-0.707
	c0.744,0.54,1.991,1.504,2.874,2.49c0.354,0.396,0.951,0.46,1.381,0.149c1.532-1.104,3.177-2.057,4.888-2.829
	c0.482-0.219,0.724-0.766,0.56-1.271c-0.41-1.257-0.621-2.815-0.716-3.729l1.034-0.376c0.513,0.76,1.351,2.087,1.846,3.317
	c0.198,0.492,0.735,0.754,1.245,0.612c1.808-0.508,3.678-0.836,5.562-0.976c0.529-0.039,0.944-0.472,0.962-1.002
	c0.043-1.322,0.378-2.862,0.602-3.755h1.101c0.224,0.893,0.558,2.433,0.602,3.755c0.017,0.53,0.432,0.963,0.962,1.002
	c1.88,0.14,3.751,0.467,5.562,0.976c0.513,0.143,1.047-0.121,1.245-0.612c0.493-1.227,1.333-2.557,1.846-3.317l1.034,0.376
	c-0.095,0.912-0.305,2.468-0.716,3.729c-0.165,0.504,0.077,1.053,0.561,1.271c1.712,0.773,3.355,1.726,4.886,2.829
	c0.431,0.312,1.026,0.246,1.381-0.149c0.884-0.985,2.13-1.95,2.874-2.49l0.843,0.707c-0.402,0.826-1.134,2.221-1.954,3.266
	c-0.328,0.418-0.289,1.014,0.091,1.385c1.352,1.317,2.573,2.772,3.633,4.323c0.298,0.437,0.88,0.581,1.347,0.331
	c1.167-0.624,2.669-1.104,3.552-1.355l0.549,0.951c-0.659,0.639-1.822,1.696-2.945,2.396c-0.451,0.278-0.617,0.854-0.388,1.332
	c0.818,1.697,1.469,3.481,1.932,5.308c0.13,0.515,0.628,0.849,1.153,0.772c0.575-0.082,1.262-0.122,2.036-0.122
	c0.674,0,1.3,0.03,1.761,0.062l0.19,1.085c-0.838,0.374-2.293,0.971-3.592,1.245c-0.52,0.106-0.872,0.59-0.82,1.119
	c0.093,0.934,0.141,1.884,0.141,2.82c0,0.94-0.048,1.892-0.141,2.824c-0.052,0.527,0.301,1.012,0.82,1.119
	c1.295,0.272,2.754,0.871,3.593,1.245L71.906,117.53z M39.509,99.53c-3.132,0-6.076,1.221-8.292,3.436
	c-2.214,2.215-3.434,5.16-3.434,8.293s1.22,6.076,3.434,8.291c2.216,2.215,5.16,3.436,8.293,3.436
	c6.466,0,11.727-5.262,11.727-11.729C51.237,104.791,45.977,99.53,39.509,99.53z M39.51,120.905c-2.578,0-5.001-1.003-6.823-2.826
	c-1.821-1.821-2.826-4.244-2.826-6.82s1.005-5.001,2.826-6.822c1.822-1.823,4.245-2.826,6.825-2.826
	c5.319,0,9.646,4.327,9.646,9.646C49.158,116.578,44.831,120.905,39.51,120.905z M26.625,23.129
	C26.626,23.129,26.626,23.129,26.625,23.129c3.176,0,5.76-2.583,5.76-5.758c0-1.538-0.6-2.985-1.687-4.072
	c-1.09-1.087-2.534-1.687-4.072-1.687h-0.001c-3.175,0-5.758,2.583-5.758,5.759C20.867,20.546,23.451,23.129,26.625,23.129z
	 M24.022,14.769c0.696-0.696,1.62-1.079,2.604-1.079c0.981,0,1.907,0.383,2.602,1.079c0.695,0.694,1.078,1.618,1.078,2.602
	c0,2.028-1.649,3.681-3.68,3.681c-2.029-0.001-3.682-1.651-3.682-3.681C22.945,16.389,23.328,15.464,24.022,14.769z M52.394,23.129
	L52.394,23.129c3.175,0,5.758-2.583,5.759-5.758c0-3.176-2.584-5.759-5.759-5.759s-5.759,2.583-5.759,5.759
	C46.635,20.546,49.219,23.129,52.394,23.129z M52.394,13.69c2.029,0,3.68,1.65,3.68,3.681c0,2.028-1.65,3.68-3.68,3.681
	c-2.03,0-3.681-1.651-3.681-3.681S50.364,13.69,52.394,13.69z M39.51,52.644c-1.538,0-2.984,0.6-4.072,1.688
	c-1.087,1.087-1.687,2.533-1.687,4.071s0.599,2.984,1.687,4.072c1.088,1.087,2.534,1.686,4.072,1.686
	c3.175,0,5.758-2.583,5.758-5.758S42.685,52.645,39.51,52.644z M39.51,62.083c-0.983,0-1.907-0.382-2.602-1.078
	c-0.696-0.694-1.079-1.62-1.079-2.602c0-0.983,0.383-1.908,1.079-2.604c0.694-0.695,1.619-1.077,2.602-1.077
	c2.03,0.001,3.681,1.651,3.681,3.681C43.19,60.432,41.54,62.083,39.51,62.083z M48.715,49.197c-2.458-2.459-5.729-3.813-9.206-3.813
	c-7.179,0-13.019,5.841-13.019,13.02c0,3.478,1.354,6.747,3.813,9.206c2.458,2.458,5.729,3.812,9.205,3.812
	c3.478,0,6.747-1.354,9.206-3.812c2.459-2.459,3.812-5.729,3.812-9.206C52.528,54.926,51.174,51.656,48.715,49.197z M47.246,66.138
	c-2.066,2.066-4.814,3.204-7.736,3.204l0,0c-2.922,0-5.67-1.138-7.736-3.203c-2.065-2.066-3.205-4.814-3.205-7.736
	c0-6.033,4.909-10.94,10.941-10.94c2.922,0,5.669,1.138,7.736,3.204c2.066,2.066,3.205,4.814,3.205,7.736
	C50.45,61.325,49.312,64.073,47.246,66.138z M63.169,108.651c-0.09-0.027-2.003-0.591-4.108-0.884
	c-0.198-1.114-0.49-2.209-0.873-3.269c1.674-1.304,3.05-2.746,3.115-2.812c0.317-0.334,0.376-0.836,0.146-1.235l-1.611-2.791
	c-0.23-0.397-0.696-0.599-1.144-0.49c-0.091,0.022-2.03,0.492-4,1.292c-0.728-0.862-1.526-1.662-2.389-2.389
	c0.799-1.97,1.271-3.909,1.292-4.001c0.107-0.448-0.093-0.913-0.492-1.143l-2.791-1.611c-0.397-0.231-0.9-0.171-1.234,0.146
	c-0.068,0.065-1.509,1.44-2.814,3.115c-1.06-0.384-2.153-0.676-3.269-0.873c-0.292-2.105-0.854-4.019-0.882-4.108
	c-0.131-0.44-0.535-0.743-0.996-0.743h-3.223c-0.46,0-0.866,0.303-0.997,0.743c-0.025,0.091-0.588,2.005-0.881,4.108
	c-1.114,0.197-2.208,0.489-3.269,0.873c-1.306-1.675-2.746-3.05-2.813-3.115c-0.334-0.316-0.837-0.377-1.235-0.146l-2.789,1.611
	c-0.399,0.229-0.6,0.692-0.492,1.143c0.021,0.09,0.493,2.031,1.292,4.001c-0.862,0.729-1.661,1.527-2.389,2.389
	c-1.971-0.8-3.91-1.27-4.002-1.292c-0.448-0.107-0.912,0.093-1.142,0.49l-1.612,2.791c-0.23,0.399-0.171,0.901,0.146,1.235
	c0.064,0.066,1.438,1.51,3.115,2.812c-0.385,1.062-0.677,2.153-0.873,3.269c-2.105,0.293-4.019,0.855-4.109,0.884
	c-0.441,0.13-0.744,0.534-0.744,0.996l0.001,3.224c0,0.459,0.302,0.864,0.744,0.994c0.091,0.026,2.003,0.588,4.108,0.881
	c0.196,1.115,0.488,2.21,0.873,3.269c-1.677,1.307-3.052,2.746-3.115,2.815c-0.318,0.334-0.377,0.836-0.147,1.234l1.613,2.79
	c0.229,0.397,0.694,0.598,1.142,0.492c0.092-0.022,2.032-0.494,4.002-1.295c0.728,0.862,1.526,1.662,2.389,2.39
	c-0.8,1.97-1.271,3.91-1.292,4.002c-0.108,0.447,0.093,0.913,0.49,1.144l2.791,1.609c0.398,0.23,0.9,0.171,1.234-0.146
	c0.069-0.062,1.509-1.438,2.815-3.114c1.059,0.385,2.153,0.678,3.267,0.875c0.294,2.104,0.855,4.019,0.882,4.106
	c0.131,0.442,0.537,0.743,0.997,0.743h3.222c0.461,0,0.865-0.301,0.997-0.743c0.025-0.089,0.59-2.004,0.882-4.108
	c1.114-0.197,2.209-0.488,3.268-0.873c1.307,1.677,2.748,3.052,2.815,3.116c0.334,0.317,0.837,0.377,1.235,0.146l2.791-1.611
	c0.398-0.229,0.599-0.695,0.491-1.144c-0.021-0.092-0.493-2.032-1.292-4.002c0.862-0.728,1.662-1.526,2.389-2.39
	c1.97,0.803,3.909,1.271,4.001,1.292c0.446,0.107,0.912-0.092,1.143-0.489l1.611-2.79c0.229-0.398,0.171-0.9-0.146-1.234
	c-0.065-0.068-1.439-1.51-3.115-2.815c0.383-1.059,0.675-2.152,0.873-3.269c2.104-0.293,4.018-0.854,4.107-0.881
	c0.44-0.13,0.745-0.537,0.745-0.997v-3.221C63.913,109.186,63.609,108.781,63.169,108.651z M61.834,112.073
	c-0.86,0.22-2.343,0.558-3.783,0.702c-0.478,0.049-0.861,0.419-0.926,0.895c-0.201,1.485-0.588,2.938-1.152,4.312
	c-0.182,0.442-0.034,0.956,0.356,1.236c1.17,0.843,2.284,1.877,2.921,2.496l-0.816,1.412c-0.854-0.242-2.311-0.688-3.627-1.284
	c-0.438-0.196-0.953-0.067-1.249,0.311c-0.914,1.178-1.977,2.24-3.155,3.155c-0.38,0.296-0.508,0.811-0.31,1.248
	c0.594,1.315,1.043,2.771,1.284,3.629l-1.413,0.815c-0.619-0.637-1.652-1.75-2.496-2.924c-0.281-0.391-0.792-0.537-1.238-0.355
	c-1.375,0.563-2.826,0.951-4.312,1.153c-0.478,0.064-0.847,0.447-0.896,0.926c-0.143,1.438-0.481,2.922-0.702,3.782h-1.629
	c-0.22-0.86-0.56-2.346-0.701-3.782c-0.05-0.479-0.419-0.86-0.896-0.926c-1.483-0.202-2.934-0.59-4.311-1.153
	c-0.445-0.182-0.957-0.034-1.237,0.355c-0.843,1.172-1.876,2.287-2.497,2.922l-1.412-0.813c0.24-0.856,0.69-2.312,1.284-3.627
	c0.197-0.438,0.07-0.954-0.31-1.25c-1.179-0.915-2.24-1.979-3.155-3.155c-0.295-0.378-0.812-0.507-1.249-0.311
	c-1.314,0.596-2.771,1.042-3.627,1.284l-0.815-1.412c0.635-0.619,1.749-1.651,2.922-2.496c0.392-0.28,0.537-0.794,0.355-1.236
	c-0.562-1.375-0.951-2.826-1.152-4.313c-0.063-0.476-0.448-0.846-0.926-0.893c-1.438-0.144-2.921-0.482-3.782-0.702v-1.632
	c0.86-0.22,2.342-0.559,3.782-0.702c0.478-0.047,0.861-0.417,0.926-0.893c0.201-1.485,0.589-2.938,1.152-4.312
	c0.182-0.446,0.036-0.956-0.355-1.237c-1.171-0.842-2.287-1.878-2.922-2.496l0.815-1.411c0.854,0.239,2.309,0.688,3.629,1.282
	c0.438,0.198,0.953,0.069,1.247-0.311c0.916-1.179,1.977-2.238,3.155-3.154c0.38-0.295,0.507-0.812,0.31-1.249
	c-0.594-1.314-1.042-2.771-1.284-3.628l1.412-0.814c0.621,0.637,1.654,1.752,2.497,2.922c0.279,0.391,0.791,0.537,1.237,0.354
	c1.377-0.562,2.827-0.951,4.311-1.15c0.478-0.065,0.847-0.447,0.896-0.928c0.144-1.437,0.481-2.921,0.701-3.781h1.63
	c0.221,0.858,0.56,2.341,0.702,3.78c0.048,0.479,0.418,0.861,0.895,0.928c1.484,0.2,2.936,0.589,4.312,1.151
	c0.445,0.183,0.957,0.035,1.237-0.354c0.842-1.17,1.877-2.285,2.497-2.922l1.412,0.814c-0.24,0.855-0.69,2.312-1.283,3.628
	c-0.198,0.438-0.07,0.952,0.31,1.247c1.18,0.916,2.241,1.979,3.156,3.156c0.295,0.38,0.811,0.506,1.248,0.309
	c1.316-0.594,2.772-1.041,3.627-1.28l0.816,1.411c-0.637,0.618-1.749,1.651-2.921,2.494c-0.392,0.28-0.537,0.793-0.356,1.237
	c0.563,1.375,0.95,2.826,1.153,4.313c0.063,0.476,0.448,0.846,0.927,0.893c1.435,0.145,2.919,0.484,3.781,0.704V112.073z"/>
</svg>
