<?xml version="1.0" encoding="utf-8"?>
<!-- Generator: Adobe Illustrator 16.0.0, SVG Export Plug-In . SVG Version: 6.00 Build 0)  -->
<!DOCTYPE svg PUBLIC "-//W3C//DTD SVG 1.1//EN" "http://www.w3.org/Graphics/SVG/1.1/DTD/svg11.dtd">
<svg version="1.1" id="Layer_1" xmlns="http://www.w3.org/2000/svg" xmlns:xlink="http://www.w3.org/1999/xlink" x="0px" y="0px"
	 width="120.327px" height="123.998px" viewBox="0 0 120.327 123.998" enable-background="new 0 0 120.327 123.998"
	 xml:space="preserve">
<g>
	<linearGradient id="SVGID_1_" gradientUnits="userSpaceOnUse" x1="0.5386" y1="35.4248" x2="58.2056" y2="35.4248">
		<stop  offset="0" style="stop-color:#E8E8E8"/>
		<stop  offset="1" style="stop-color:#DCDCDC"/>
	</linearGradient>
	<path fill="url(#SVGID_1_)" d="M29.372,64.258c-15.899,0-28.833-12.935-28.833-28.833S13.473,6.591,29.372,6.591
		s28.833,12.935,28.833,28.833S45.271,64.258,29.372,64.258z M29.372,8.591c-14.796,0-26.833,12.038-26.833,26.833
		c0,14.796,12.038,26.833,26.833,26.833c14.796,0,26.833-12.037,26.833-26.833C56.206,20.629,44.168,8.591,29.372,8.591z"/>
</g>
<g>
	<linearGradient id="SVGID_2_" gradientUnits="userSpaceOnUse" x1="76.9077" y1="30.7583" x2="103.2417" y2="30.7583">
		<stop  offset="0" style="stop-color:#E8E8E8"/>
		<stop  offset="1" style="stop-color:#DCDCDC"/>
	</linearGradient>
	<path fill="url(#SVGID_2_)" d="M90.074,43.925c-7.26,0-13.166-5.906-13.166-13.167c0-7.26,5.906-13.167,13.166-13.167
		c7.261,0,13.168,5.907,13.168,13.167C103.242,38.019,97.334,43.925,90.074,43.925z M90.074,19.591
		c-6.157,0-11.166,5.009-11.166,11.167s5.009,11.167,11.166,11.167c6.158,0,11.168-5.009,11.168-11.167S96.232,19.591,90.074,19.591
		z"/>
</g>
<g>
	<g>
		<linearGradient id="SVGID_3_" gradientUnits="userSpaceOnUse" x1="6.1587" y1="93.1279" x2="58.1001" y2="93.1279">
			<stop  offset="0" style="stop-color:#E8E8E8"/>
			<stop  offset="1" style="stop-color:#DCDCDC"/>
		</linearGradient>
		<path fill="url(#SVGID_3_)" d="M15.648,116.83c-1.888,0-3.718-0.559-5.292-1.616c-4.348-2.923-5.507-8.837-2.584-13.185
			L27.158,73.62c1.763-2.624,4.711-4.193,7.882-4.193c0.867,0,1.732,0.119,2.57,0.354l0.767,0.216
			c4.361,1.228,8.185,2.304,11.541,3.256c0.307,0.087,0.553,0.313,0.664,0.612l7.369,19.73c0.095,0.152,0.148,0.332,0.148,0.524
			c0,0.553-0.447,1-1,1c-0.005,0-0.013,0-0.02,0c-0.096,0-0.191-0.014-0.285-0.042c-4.6-1.368-10.87-3.186-17.722-5.136
			l-15.539,22.694C21.771,115.259,18.821,116.83,15.648,116.83z M35.041,71.426c-2.504,0-4.831,1.239-6.226,3.314L9.428,103.15
			c-2.303,3.427-1.388,8.097,2.044,10.403c1.243,0.835,2.687,1.276,4.176,1.276c2.506,0,4.836-1.24,6.232-3.316l15.95-23.296
			c0.243-0.354,0.684-0.515,1.099-0.397c6.212,1.767,11.982,3.434,16.514,4.771l-6.556-17.553c-3.237-0.917-6.9-1.948-11.051-3.117
			l-0.765-0.215C36.409,71.52,35.726,71.426,35.041,71.426z"/>
	</g>
</g>
<g>
	<g>
		<linearGradient id="SVGID_4_" gradientUnits="userSpaceOnUse" x1="69.1602" y1="69.04" x2="95.7417" y2="69.04">
			<stop  offset="0" style="stop-color:#E8E8E8"/>
			<stop  offset="1" style="stop-color:#DCDCDC"/>
		</linearGradient>
		<path fill="url(#SVGID_4_)" d="M79.664,90.508c-0.019,0-0.037-0.001-0.057-0.002c-0.394-0.021-0.737-0.273-0.878-0.642
			l-9.503-24.877c-0.107-0.282-0.082-0.598,0.07-0.858l6.499-11.19c1.752-3.077,4.916-5.075,8.46-5.338
			c2.077-0.155,4.206,0.32,6.043,1.364c5.471,3.116,6.826,7.966,4.028,14.413l-13.775,26.59
			C80.379,90.301,80.036,90.508,79.664,90.508z M71.265,64.72l8.537,22.348l12.72-24.548c2.359-5.444,1.348-9.219-3.213-11.816
			c-1.491-0.847-3.214-1.23-4.905-1.108c-2.879,0.214-5.449,1.836-6.875,4.341L71.265,64.72z"/>
	</g>
</g>
<g>
	<linearGradient id="SVGID_5_" gradientUnits="userSpaceOnUse" x1="55.0151" y1="92.9258" x2="84.1831" y2="92.9258">
		<stop  offset="0" style="stop-color:#E8E8E8"/>
		<stop  offset="1" style="stop-color:#DCDCDC"/>
	</linearGradient>
	<path fill="url(#SVGID_5_)" d="M83.183,117.406c-0.004,0.001-0.012,0.001-0.02,0H71.678c-0.413,0-0.784-0.255-0.933-0.641
		L55.42,77.008c-0.577-1.495-0.536-3.126,0.113-4.591s1.831-2.589,3.327-3.166l1.112-0.409c0.68-0.262,1.405-0.397,2.144-0.397
		c2.463,0,4.713,1.545,5.6,3.844l16.318,43.592c0.095,0.153,0.148,0.333,0.148,0.525C84.183,116.958,83.736,117.406,83.183,117.406z
		 M72.365,115.406h9.356L65.846,72.999c-0.587-1.523-2.088-2.554-3.729-2.554c-0.491,0-0.975,0.091-1.438,0.27l-1.112,0.409
		c-0.983,0.379-1.771,1.128-2.204,2.104c-0.433,0.977-0.46,2.064-0.075,3.062L72.365,115.406z"/>
</g>
<g>
	<linearGradient id="SVGID_6_" gradientUnits="userSpaceOnUse" x1="95.9131" y1="45.6538" x2="119.7891" y2="45.6538">
		<stop  offset="0" style="stop-color:#E8E8E8"/>
		<stop  offset="1" style="stop-color:#DCDCDC"/>
	</linearGradient>
	<path fill="url(#SVGID_6_)" d="M101.04,56.883c-0.126,0-0.252-0.024-0.372-0.072c-0.319-0.127-0.552-0.411-0.613-0.75
		c-0.008-0.046-0.864-4.59-3.819-7.318c-0.219-0.202-0.336-0.491-0.32-0.788c0.017-0.298,0.165-0.573,0.404-0.75l17-12.583
		c0.252-0.188,0.562-0.237,0.845-0.165c0.422-0.11,0.883,0.069,1.114,0.464l4.375,7.5c0.258,0.443,0.14,1.01-0.274,1.312
		l-17.75,12.958C101.455,56.818,101.248,56.883,101.04,56.883z M98.427,48.131c1.789,2.038,2.751,4.515,3.219,6.07L117.47,42.65
		l-3.509-6.016L98.427,48.131z"/>
</g>
</svg>
