<?xml version="1.0" encoding="utf-8"?>
<!-- Generator: Adobe Illustrator 16.0.0, SVG Export Plug-In . SVG Version: 6.00 Build 0)  -->
<!DOCTYPE svg PUBLIC "-//W3C//DTD SVG 1.1//EN" "http://www.w3.org/Graphics/SVG/1.1/DTD/svg11.dtd">
<svg version="1.1" id="Layer_1" xmlns="http://www.w3.org/2000/svg" xmlns:xlink="http://www.w3.org/1999/xlink" x="0px" y="0px"
	 width="14.819px" height="29.639px" viewBox="0 0 14.819 29.639" enable-background="new 0 0 14.819 29.639" xml:space="preserve">
<g opacity="0.3">
	<path fill="#4C5763" d="M7.41,14.819C3.324,14.819,0,11.496,0,7.41S3.324,0,7.41,0s7.41,3.324,7.41,7.41S11.496,14.819,7.41,14.819
		z M7.41,2C4.427,2,2,4.427,2,7.41s2.427,5.41,5.41,5.41s5.41-2.427,5.41-5.41S10.393,2,7.41,2z"/>
</g>
<g opacity="0.3">
	<circle fill="#4C5763" cx="7.41" cy="22.229" r="6.41"/>
	<path fill="#4C5763" d="M7.41,29.639c-4.086,0-7.41-3.324-7.41-7.41s3.324-7.41,7.41-7.41s7.41,3.324,7.41,7.41
		S11.496,29.639,7.41,29.639z M7.41,16.819c-2.983,0-5.41,2.427-5.41,5.41s2.427,5.41,5.41,5.41s5.41-2.427,5.41-5.41
		S10.393,16.819,7.41,16.819z"/>
</g>
</svg>
