<?xml version="1.0" encoding="utf-8"?>
<!-- Generator: Adobe Illustrator 16.0.0, SVG Export Plug-In . SVG Version: 6.00 Build 0)  -->
<!DOCTYPE svg PUBLIC "-//W3C//DTD SVG 1.1//EN" "http://www.w3.org/Graphics/SVG/1.1/DTD/svg11.dtd">
<svg version="1.1" id="Layer_1" xmlns="http://www.w3.org/2000/svg" xmlns:xlink="http://www.w3.org/1999/xlink" x="0px" y="0px"
	 width="214.587px" height="123.998px" viewBox="0 0 214.587 123.998" enable-background="new 0 0 214.587 123.998"
	 xml:space="preserve">
<g>
	<linearGradient id="SVGID_1_" gradientUnits="userSpaceOnUse" x1="7.7236" y1="54.5981" x2="7.7236" y2="54.5981">
		<stop  offset="0" style="stop-color:#E8E8E8"/>
		<stop  offset="1" style="stop-color:#DCDCDC"/>
	</linearGradient>
	
		<path fill="url(#SVGID_1_)" stroke="#414042" stroke-width="2" stroke-linecap="round" stroke-linejoin="round" stroke-miterlimit="10" d="
		M7.724,54.598"/>
</g>
<g>
	<path fill="none" stroke="#414042" stroke-width="2" stroke-linecap="round" stroke-linejoin="round" stroke-miterlimit="10" d="
		M319.812,61.251"/>
</g>
<linearGradient id="SVGID_2_" gradientUnits="userSpaceOnUse" x1="0" y1="61.5762" x2="214.5874" y2="61.5762">
	<stop  offset="0" style="stop-color:#E8E8E8"/>
	<stop  offset="1" style="stop-color:#DCDCDC"/>
</linearGradient>
<path fill="url(#SVGID_2_)" d="M196.861,93.714l-0.687-0.004c-0.291-0.003-0.566-0.133-0.754-0.355s-0.269-0.517-0.223-0.804
	c0.515-3.188-0.054-7.375-1.599-11.789c-0.664-1.896-4.658-11.358-18.188-11.358c-11.941,0-17.514,7.878-18.924,12.532
	c-1.474,4.864-1.562,9.705-1.562,9.754c-0.008,0.547-0.454,0.985-1,0.985c-0.002,0-0.004,0-0.007,0l-89.693-0.576
	c-0.538-0.004-0.978-0.434-0.993-0.972c-0.001-0.05-0.159-5.024-1.659-9.438c-2.732-8.034-9.396-12.643-18.284-12.643
	c-10.822,0-16.991,6.244-18.986,11.592c-2.052,5.501-1.104,9.448-0.877,10.233c0.079,0.143,0.123,0.307,0.123,0.481
	c0,0.553-0.447,1-1,1c-0.006-0.001-0.016-0.001-0.021,0c-0.041,0-0.082-0.003-0.123-0.008c-0.259-0.032-6.355-0.801-9.111-1.643
	c-2.438-0.745-4.354-1.767-6.78-3.062l-1.162-0.618c-3.042-1.609-3.855-2.072-4.287-3.098c-0.297-0.706-0.418-1.279-0.372-1.775
	c-0.042-0.159-0.081-0.303-0.117-0.436c-0.174-0.642-0.303-1.114-0.389-2.108c-0.247-0.626-0.241-1.568-0.028-2.201
	c-0.002-0.204-0.006-0.414-0.011-0.62c-0.025-1.267-0.036-1.74,0.296-2.136c0.144-0.173,0.302-0.266,0.417-0.334
	c0.153-0.091,0.473-0.278,1.231-1.069l1.773-1.865c-0.157-0.933-0.472-3.065-0.623-6.01c-0.166-3.247,0.169-5.307,0.465-7.124
	c0.069-0.427,0.137-0.841,0.195-1.257c0.324-2.322,2.652-4.613,3.772-5.714l0.219-0.217c0.899-0.899,1.537-1.07,2.4-1.07
	l2.165,0.001c0.499-0.342,1.35-1.191,3.023-3.006c0.461-0.5,1.128-1.232,1.909-2.091c2.823-3.102,7.091-7.789,8.753-9.309
	c0.102-0.104,3.404-3.366,10.243-3.979c5.914-0.529,20.752-1.785,30.776-2.027c3.823-0.093,8.039-0.141,12.192-0.141
	c8.601,0,15.975,0.212,20.764,0.599c9.062,0.73,16.532,2.109,20.496,3.785c4.029,1.703,10.954,5.534,14.648,7.907
	c4.373,2.809,10.055,6.439,12.29,7.784c2.34,1.405,3.163,1.855,4.922,1.984c1.841,0.136,2.971-0.057,4.471-0.351
	c1.368-0.268,2.387-0.539,2.397-0.541c0.117-0.031,0.242-0.038,0.361-0.029l0.132,0.014c0.757,0.107,4.835,0.725,13.123,1.986
	c7.763,1.182,16.516,2.553,22.154,3.87c5.084,1.188,8.51,2.339,10.476,3.518c1.819,1.092,2.721,2.21,2.759,2.257
	c0.19,0.239,0.262,0.554,0.191,0.853c-0.07,0.298-0.273,0.548-0.552,0.677l-0.601,0.279c-0.312,0.146-0.677,0.119-0.967-0.067
	c0.001,0,0.001,0.001,0.001,0.001c-0.01,0-0.675-0.312-3.236-0.843c-2.94-0.611-7.731-1.332-9.028-1.403l-0.263-0.015
	c-0.322-0.019-0.614-0.032-0.734-0.024c-0.019,0.028-0.043,0.07-0.075,0.13c-0.045,0.084-0.081,0.152-0.105,0.204
	c0.07,0.089,0.211,0.242,0.487,0.506l0.541,0.519c1.112,1.067,2.974,2.854,3.672,3.409c0.689,0.549,0.981,0.688,2.509,0.906
	c1.636,0.233,8.818,1.383,9.574,1.515l0.307,0.046c0.053,0.009,0.105,0.021,0.157,0.037c2.563,0.825,2.683,0.944,2.863,1.125
	c0.485,0.485,1.297,3.557,1.343,3.768c0.258,1.192,0.207,1.832-0.269,3.186l-0.067,0.395c-0.003,0.533-0.018,3.517-0.021,4.639
	c0.261,0.459,0.411,1.215,0.204,2.459c-0.025,1.212-0.552,2.696-1.509,3.138c-0.094,0.043-0.192,0.071-0.295,0.084l-0.567,0.071
	c-0.751,0.617-3.18,2.599-4.924,3.832c-1.07,1.148-1.884,1.286-3.1,1.493l-0.527,0.092
	C201.595,93.551,199.408,93.714,196.861,93.714z M175.412,67.404c14.88,0,19.333,10.578,20.075,12.698
	c1.477,4.219,2.112,8.287,1.827,11.61c2.231-0.018,4.143-0.169,5.687-0.45l0.551-0.097c1.119-0.189,1.385-0.234,2.028-0.947
	c0.051-0.055,0.106-0.104,0.168-0.147c1.978-1.387,5.079-3.958,5.11-3.983c0.146-0.122,0.325-0.199,0.515-0.223l0.591-0.074
	c0.09-0.17,0.318-0.705,0.318-1.361c0-0.059,0.005-0.116,0.016-0.174c0.125-0.711,0.077-1.054,0.051-1.17
	c-0.174-0.184-0.272-0.429-0.272-0.686c0-0.679,0.021-5.069,0.021-5.069c0-0.055,0.005-0.109,0.015-0.163l0.096-0.561
	c0.01-0.058,0.024-0.113,0.043-0.168c0.417-1.169,0.392-1.416,0.228-2.173c-0.159-0.736-0.615-2.129-0.845-2.726
	c-0.416-0.156-1.229-0.432-1.942-0.662l-0.25-0.037c-0.612-0.107-7.866-1.271-9.535-1.509c-1.796-0.258-2.445-0.505-3.473-1.322
	c-0.77-0.614-2.599-2.369-3.81-3.53l-0.538-0.516c-1.133-1.084-1.488-1.755-0.761-3.104c0.458-0.853,1.005-1.185,1.95-1.185
	c0.2,0,0.44,0.014,0.737,0.03l0.256,0.016c1.387,0.076,6.233,0.8,9.305,1.437c-1.899-0.896-4.889-1.823-8.913-2.764
	c-5.303-1.239-13.708-2.578-22-3.841c-8.013-1.22-12.085-1.835-12.988-1.967c-0.368,0.094-1.239,0.308-2.34,0.523
	c-1.587,0.311-2.908,0.535-5,0.382c-2.23-0.162-3.326-0.773-5.808-2.265c-2.257-1.357-7.956-4.999-12.34-7.814
	c-3.627-2.33-10.411-6.085-14.348-7.749c-3.72-1.572-11.15-2.93-19.877-3.633c-4.738-0.382-12.055-0.592-20.604-0.592
	c-4.138,0-8.337,0.048-12.144,0.14c-9.966,0.241-24.753,1.493-30.647,2.02c-6.062,0.543-9.01,3.403-9.039,3.432
	c-1.627,1.49-5.856,6.136-8.655,9.211c-0.785,0.862-1.455,1.598-1.918,2.1c-2.181,2.364-3.023,3.158-3.759,3.538
	c-0.143,0.074-0.3,0.112-0.46,0.112h-2.344c-0.457,0.016-0.599-0.001-1.083,0.483l-0.23,0.229c-0.887,0.872-2.964,2.915-3.194,4.565
	c-0.06,0.43-0.13,0.859-0.201,1.301c-0.28,1.719-0.598,3.666-0.441,6.701c0.193,3.776,0.675,6.212,0.68,6.235
	c0.063,0.319-0.031,0.65-0.256,0.887l-2.126,2.236c-0.688,0.716-1.119,1.058-1.4,1.247c-0.003,0.254,0.004,0.605,0.01,0.869
	c0.006,0.284,0.012,0.579,0.012,0.853c0,0.168-0.043,0.334-0.124,0.481c-0.053,0.133-0.045,0.564,0.003,0.772
	c0.072,0.128,0.117,0.271,0.128,0.42c0.07,0.933,0.166,1.283,0.339,1.919c0.054,0.195,0.111,0.41,0.176,0.665
	c0.039,0.155,0.04,0.317,0.004,0.474l0,0c0,0-0.031,0.217,0.224,0.822c0.14,0.332,0.771,0.726,3.379,2.105l1.168,0.621
	c2.422,1.292,4.172,2.226,6.423,2.914c1.813,0.554,5.357,1.098,7.342,1.377c-0.329-1.938-0.522-5.585,1.21-10.229
	c2.921-7.832,11.109-12.893,20.859-12.893c9.653,0,17.196,5.233,20.177,13.998c1.208,3.551,1.595,7.326,1.715,9.06l87.786,0.564
	c0.1-1.73,0.442-5.469,1.607-9.313C156.144,76.174,162.299,67.404,175.412,67.404z"/>
<g>
	<linearGradient id="SVGID_3_" gradientUnits="userSpaceOnUse" x1="29.7397" y1="43.292" x2="55.8027" y2="43.292">
		<stop  offset="0" style="stop-color:#E8E8E8"/>
		<stop  offset="1" style="stop-color:#DCDCDC"/>
	</linearGradient>
	<path fill="url(#SVGID_3_)" d="M48.451,52.24c-0.021,0-0.044-0.001-0.066-0.002l0.066-0.998l-0.12,0.994
		c-6.17-0.411-12.549-0.836-14.211-1.054c-1.765-0.23-3.653-0.744-4.277-2.799c-0.496-1.634,0.845-3.631,3.073-6.756
		c2.022-2.834,4.019-4.706,5.018-5.246c1.056-0.572,3.654-1.066,7.13-1.356c0.846-0.07,2.344-0.171,4.065-0.287
		c1.787-0.12,3.815-0.256,5.599-0.391c0.332-0.022,0.678,0.127,0.881,0.405c0.205,0.278,0.251,0.642,0.123,0.963L49.38,51.611
		C49.228,51.993,48.858,52.24,48.451,52.24z M53.28,36.457c-1.344,0.096-2.742,0.19-4.018,0.275
		c-1.707,0.115-3.194,0.214-4.033,0.284c-3.987,0.332-5.863,0.861-6.344,1.122c-0.545,0.294-2.32,1.817-4.341,4.649
		c-1.204,1.688-3.023,4.238-2.788,5.012c0.176,0.579,0.509,1.121,2.623,1.398c1.54,0.201,7.489,0.602,13.412,0.996L53.28,36.457z"/>
</g>
<g>
	<linearGradient id="SVGID_4_" gradientUnits="userSpaceOnUse" x1="92.7163" y1="60.7642" x2="150.3198" y2="60.7642">
		<stop  offset="0" style="stop-color:#E8E8E8"/>
		<stop  offset="1" style="stop-color:#DCDCDC"/>
	</linearGradient>
	<path fill="url(#SVGID_4_)" d="M143.783,87.869h-41.989c-0.266,0-0.52-0.105-0.707-0.293l-2.032-2.033
		c-0.188-0.188-0.293-0.441-0.293-0.706c-0.001-0.375-0.295-1.399-0.493-1.975c-0.042-0.121-0.061-0.251-0.054-0.379
		c0.003-0.039,0.201-3.894,0-9.358c-0.194-5.281-0.395-10.742-1.01-13.921c-0.596-3.079-1.397-5.405-1.405-5.428
		c-0.024-0.07-0.041-0.142-0.049-0.215l-0.097-0.85L92.729,34.82c-0.048-0.294,0.038-0.595,0.234-0.819
		c0.197-0.225,0.484-0.347,0.781-0.341c0.755,0.021,1.56,0.026,2.425,0.031c3.562,0.022,7.993,0.049,14.173,1.167
		c7.088,1.282,10.074,2.981,15.022,5.797c0.784,0.445,1.618,0.92,2.527,1.426c6.361,3.54,10.896,6.327,14.271,8.771l0.812,0.584
		c2.256,1.619,3.617,2.596,5.093,4.932c1.674,2.651,1.901,4.032,2.085,7.023c0.105,1.717,0.316,6.354,0.001,12.312l-0.26,4.895
		c-0.012,0.211-0.089,0.412-0.222,0.576l-5.111,6.324C144.371,87.732,144.085,87.869,143.783,87.869z M102.208,85.869h41.098
		l4.607-5.701l0.242-4.57c0.216-4.062,0.216-8.579,0.001-12.083c-0.168-2.729-0.343-3.802-1.78-6.078
		c-1.268-2.006-2.37-2.798-4.567-4.375l-0.819-0.59c-3.309-2.396-7.779-5.143-14.069-8.643c-0.915-0.51-1.755-0.987-2.543-1.436
		c-4.764-2.71-7.639-4.346-14.39-5.567c-6.01-1.087-10.346-1.113-13.83-1.135c-0.435-0.002-0.854-0.005-1.26-0.01l2.828,17.546
		c0.17,0.509,0.886,2.72,1.442,5.596c0.645,3.331,0.849,8.871,1.045,14.228c0.18,4.864,0.047,8.485,0.009,9.344
		c0.136,0.413,0.407,1.289,0.505,1.992L102.208,85.869z"/>
</g>
<g>
	<linearGradient id="SVGID_5_" gradientUnits="userSpaceOnUse" x1="50.3218" y1="60.6992" x2="96.252" y2="60.6992">
		<stop  offset="0" style="stop-color:#E8E8E8"/>
		<stop  offset="1" style="stop-color:#DCDCDC"/>
	</linearGradient>
	<path fill="url(#SVGID_5_)" d="M93.349,87.739H67.882c-0.275,0-0.539-0.114-0.728-0.315c-0.189-0.2-0.287-0.471-0.271-0.745
		c0.035-0.589,0.679-14.486-14.733-20.676c-0.287-0.115-0.505-0.357-0.589-0.656c-0.669-2.369-1.339-5.05-1.228-6.975
		c0.144-2.461,1.386-3.848,2.453-4.78c0.028-0.024,0.058-0.048,0.089-0.069c0.691-0.479,1.046-0.9,1.167-1.06l6.23-17.656
		c0.134-0.377,0.479-0.639,0.878-0.665c4.91-0.323,8.232-0.431,13.674-0.442c1.194-0.003,2.449-0.01,3.737-0.018
		c3.388-0.021,7.005-0.042,10.389,0.019c0.479,0.009,0.883,0.355,0.966,0.827l3.29,18.672c0.15,0.446,0.884,2.688,1.452,5.624
		c0.643,3.319,0.848,8.865,1.045,14.228c0.179,4.865,0.046,8.487,0.009,9.345c0.167,0.506,0.538,1.715,0.539,2.439
		c0,0.266-0.105,0.521-0.293,0.708l-1.903,1.903C93.868,87.633,93.614,87.739,93.349,87.739z M68.884,85.739h24.051l1.271-1.271
		c-0.091-0.474-0.296-1.17-0.446-1.605c-0.042-0.122-0.061-0.251-0.054-0.379c0.002-0.038,0.2-3.894,0-9.358
		c-0.195-5.287-0.397-10.754-1.01-13.921c-0.595-3.07-1.397-5.405-1.406-5.429c-0.017-0.05-0.03-0.102-0.039-0.153l-3.16-17.936
		c-3.124-0.044-6.416-0.024-9.516-0.005c-1.291,0.008-2.549,0.015-3.746,0.018c-5.146,0.011-8.379,0.108-12.889,0.396l-6.056,17.161
		c-0.022,0.063-0.052,0.124-0.086,0.183c-0.052,0.085-0.531,0.85-1.735,1.694c-0.975,0.86-1.641,1.768-1.733,3.355
		c-0.087,1.516,0.475,3.857,1.025,5.849c8.433,3.536,12.209,9.36,13.894,13.661C68.556,81.333,68.836,84.244,68.884,85.739z"/>
</g>
</svg>
