<?xml version="1.0" encoding="utf-8"?>
<!-- Generator: Adobe Illustrator 16.0.0, SVG Export Plug-In . SVG Version: 6.00 Build 0)  -->
<!DOCTYPE svg PUBLIC "-//W3C//DTD SVG 1.1//EN" "http://www.w3.org/Graphics/SVG/1.1/DTD/svg11.dtd">
<svg version="1.1" id="Layer_1" xmlns="http://www.w3.org/2000/svg" xmlns:xlink="http://www.w3.org/1999/xlink" x="0px" y="0px"
	 width="120.327px" height="123.998px" viewBox="0 0 120.327 123.998" enable-background="new 0 0 120.327 123.998"
	 xml:space="preserve">
<g>
	<linearGradient id="SVGID_1_" gradientUnits="userSpaceOnUse" x1="23.2979" y1="76.0825" x2="93.9531" y2="76.0825">
		<stop  offset="0" style="stop-color:#E8E8E8"/>
		<stop  offset="1" style="stop-color:#DCDCDC"/>
	</linearGradient>
	<path fill="url(#SVGID_1_)" d="M58.625,102.296c-19.479,0-35.328-16.697-35.328-37.222V50.869c0-0.553,0.448-1,1-1h68.655
		c0.552,0,1,0.447,1,1v14.205C93.953,85.599,78.105,102.296,58.625,102.296z M25.298,51.869v13.205
		c0,19.421,14.951,35.222,33.328,35.222s33.328-15.801,33.328-35.222V51.869H25.298z"/>
</g>
<g>
	<linearGradient id="SVGID_2_" gradientUnits="userSpaceOnUse" x1="91.2427" y1="63.5986" x2="105.3164" y2="63.5986">
		<stop  offset="0" style="stop-color:#E8E8E8"/>
		<stop  offset="1" style="stop-color:#DCDCDC"/>
	</linearGradient>
	<path fill="url(#SVGID_2_)" d="M94.847,74.068h-2.604c-0.552,0-1-0.447-1-1s0.448-1,1-1h2.604c4.67,0,8.469-3.8,8.469-8.47
		s-3.799-8.47-8.469-8.47h-1.894c-0.552,0-1-0.447-1-1s0.448-1,1-1h1.894c5.773,0,10.469,4.696,10.469,10.47
		S100.62,74.068,94.847,74.068z"/>
</g>
<g>
	<linearGradient id="SVGID_3_" gradientUnits="userSpaceOnUse" x1="39.5952" y1="106.1182" x2="76.6631" y2="106.1182">
		<stop  offset="0" style="stop-color:#E8E8E8"/>
		<stop  offset="1" style="stop-color:#DCDCDC"/>
	</linearGradient>
	<path fill="url(#SVGID_3_)" d="M75.663,107.118H40.595c-0.552,0-1-0.447-1-1s0.448-1,1-1h35.068c0.552,0,1,0.447,1,1
		S76.215,107.118,75.663,107.118z"/>
</g>
<g>
	<linearGradient id="SVGID_4_" gradientUnits="userSpaceOnUse" x1="23.4722" y1="110.1494" x2="92.7861" y2="110.1494">
		<stop  offset="0" style="stop-color:#E8E8E8"/>
		<stop  offset="1" style="stop-color:#DCDCDC"/>
	</linearGradient>
	<path fill="url(#SVGID_4_)" d="M91.786,111.149H24.472c-0.552,0-1-0.447-1-1s0.448-1,1-1h67.314c0.552,0,1,0.447,1,1
		S92.338,111.149,91.786,111.149z"/>
</g>
<g>
	<linearGradient id="SVGID_5_" gradientUnits="userSpaceOnUse" x1="58.3071" y1="25.9258" x2="64.3071" y2="25.9258">
		<stop  offset="0" style="stop-color:#E8E8E8"/>
		<stop  offset="1" style="stop-color:#DCDCDC"/>
	</linearGradient>
	<path fill="url(#SVGID_5_)" d="M59.307,44.426c-0.552,0-1-0.447-1-1c0-3.228,1.156-4.913,2.175-6.4
		c0.979-1.429,1.825-2.662,1.825-5.269c0-2.607-0.846-3.841-1.825-5.269c-1.02-1.487-2.175-3.173-2.175-6.4
		c0-3.225,1.156-4.91,2.175-6.396c0.979-1.427,1.825-2.659,1.825-5.265c0-0.552,0.448-1,1-1s1,0.448,1,1
		c0,3.225-1.156,4.91-2.175,6.396c-0.979,1.427-1.825,2.659-1.825,5.265c0,2.608,0.846,3.841,1.825,5.27
		c1.02,1.487,2.175,3.173,2.175,6.4s-1.156,4.913-2.175,6.4c-0.979,1.429-1.825,2.662-1.825,5.27
		C60.307,43.979,59.859,44.426,59.307,44.426z"/>
</g>
<g>
	<linearGradient id="SVGID_6_" gradientUnits="userSpaceOnUse" x1="49.3071" y1="25.9258" x2="55.3071" y2="25.9258">
		<stop  offset="0" style="stop-color:#E8E8E8"/>
		<stop  offset="1" style="stop-color:#DCDCDC"/>
	</linearGradient>
	<path fill="url(#SVGID_6_)" d="M50.307,44.426c-0.552,0-1-0.447-1-1c0-3.228,1.156-4.913,2.175-6.4
		c0.979-1.429,1.825-2.662,1.825-5.269c0-2.607-0.846-3.841-1.825-5.269c-1.02-1.487-2.175-3.173-2.175-6.4
		c0-3.225,1.156-4.91,2.175-6.396c0.979-1.427,1.825-2.659,1.825-5.265c0-0.552,0.448-1,1-1s1,0.448,1,1
		c0,3.225-1.156,4.91-2.175,6.396c-0.979,1.427-1.825,2.659-1.825,5.265c0,2.608,0.846,3.841,1.825,5.27
		c1.02,1.487,2.175,3.173,2.175,6.4s-1.156,4.913-2.175,6.4c-0.979,1.429-1.825,2.662-1.825,5.27
		C51.307,43.979,50.859,44.426,50.307,44.426z"/>
</g>
<g>
	<linearGradient id="SVGID_7_" gradientUnits="userSpaceOnUse" x1="66.3071" y1="25.9258" x2="72.3071" y2="25.9258">
		<stop  offset="0" style="stop-color:#E8E8E8"/>
		<stop  offset="1" style="stop-color:#DCDCDC"/>
	</linearGradient>
	<path fill="url(#SVGID_7_)" d="M67.307,44.426c-0.552,0-1-0.447-1-1c0-3.228,1.156-4.913,2.175-6.4
		c0.979-1.429,1.825-2.662,1.825-5.269c0-2.607-0.846-3.841-1.825-5.269c-1.02-1.487-2.175-3.173-2.175-6.4
		c0-3.225,1.156-4.91,2.175-6.396c0.979-1.427,1.825-2.659,1.825-5.265c0-0.552,0.448-1,1-1s1,0.448,1,1
		c0,3.225-1.156,4.91-2.175,6.396c-0.979,1.427-1.825,2.659-1.825,5.265c0,2.608,0.846,3.841,1.825,5.27
		c1.02,1.487,2.175,3.173,2.175,6.4s-1.156,4.913-2.175,6.4c-0.979,1.429-1.825,2.662-1.825,5.27
		C68.307,43.979,67.859,44.426,67.307,44.426z"/>
</g>
</svg>
